# This file uses centimeters as units for non-parametric coordinates.

mtllib Venezuela.mtl
g default
v -0.400703 3.989256 0.000000
v -0.775644 4.240466 0.000000
v -1.049351 4.120485 0.000000
v -1.180580 4.180476 0.000000
v -1.439289 4.135483 0.000000
v -1.495530 4.244215 0.000000
v -1.799232 4.236717 0.000000
v -1.949209 4.124235 0.000000
v -1.997951 3.876774 0.000000
v -1.904216 3.768041 0.000000
v -1.847975 3.603067 0.000000
v -1.615511 3.629313 0.000000
v -1.551771 3.565573 0.000000
v -1.304311 3.576821 0.000000
v -1.244320 3.254372 0.000000
v -1.266816 3.119394 0.000000
v -1.165583 2.931923 0.000000
v -1.071847 2.864434 0.000000
v -0.816888 2.984415 0.000000
v -0.798141 3.070651 0.000000
v -0.753148 3.149389 0.000000
v -0.828136 3.153138 0.000000
v -0.959365 3.370604 0.000000
v -0.723152 3.340609 0.000000
v -0.689408 3.295616 0.000000
v -0.423200 3.531828 0.000000
v -0.524434 3.644310 0.000000
v -0.408202 3.786788 0.000000
v -0.400703 3.989256 0.100000
v -0.775644 4.240466 0.100000
v -1.049351 4.120485 0.100000
v -1.180580 4.180476 0.100000
v -1.439289 4.135483 0.100000
v -1.495530 4.244215 0.100000
v -1.799232 4.236717 0.100000
v -1.949209 4.124235 0.100000
v -1.997951 3.876774 0.100000
v -1.904216 3.768041 0.100000
v -1.847975 3.603067 0.100000
v -1.615511 3.629313 0.100000
v -1.551771 3.565573 0.100000
v -1.304311 3.576821 0.100000
v -1.244320 3.254372 0.100000
v -1.266816 3.119394 0.100000
v -1.165583 2.931923 0.100000
v -1.071847 2.864434 0.100000
v -0.816888 2.984415 0.100000
v -0.798141 3.070651 0.100000
v -0.753148 3.149389 0.100000
v -0.828136 3.153138 0.100000
v -0.959365 3.370604 0.100000
v -0.723152 3.340609 0.100000
v -0.689408 3.295616 0.100000
v -0.423200 3.531828 0.100000
v -0.524434 3.644310 0.100000
v -0.408202 3.786788 0.100000
vt 0.147682 0.000000
vt 0.430195 0.000000
vt 0.530730 0.157762
vt 0.619877 0.172289
vt 0.738740 0.285828
vt 0.805873 0.248879
vt 0.961198 0.358597
vt 1.000000 0.469348
vt 0.939126 0.615021
vt 0.852494 0.638907
vt 0.765765 0.705105
vt 0.654019 0.610459
vt 0.598662 0.621397
vt 0.473892 0.529326
vt 0.330344 0.676110
vt 0.295012 0.754143
vt 0.177046 0.816363
vt 0.104785 0.818800
vt 0.014000 0.667570
vt 0.034298 0.616191
vt 0.038334 0.559568
vt 0.078637 0.583746
vt 0.222653 0.516379
vt 0.089362 0.449674
vt 0.056136 0.461315
vt 0.000000 0.245720
vt 0.091838 0.222497
vt 0.081036 0.107905
vt 0.147682 0.000000
vt 0.430195 0.000000
vt 0.530730 0.157762
vt 0.619877 0.172289
vt 0.738740 0.285828
vt 0.805873 0.248879
vt 0.961198 0.358597
vt 1.000000 0.469348
vt 0.939126 0.615021
vt 0.852494 0.638907
vt 0.765765 0.705105
vt 0.654019 0.610459
vt 0.598662 0.621397
vt 0.473892 0.529326
vt 0.330344 0.676110
vt 0.295012 0.754143
vt 0.177046 0.816363
vt 0.104785 0.818800
vt 0.014000 0.667570
vt 0.034298 0.616191
vt 0.038334 0.559568
vt 0.078637 0.583746
vt 0.222653 0.516379
vt 0.089362 0.449674
vt 0.056136 0.461315
vt 0.000000 0.245720
vt 0.091838 0.222497
vt 0.081036 0.107905
vt 0.147682 0.000000
vt 0.430195 0.000000
vt 0.530730 0.157762
vt 0.619877 0.172289
vt 0.738740 0.285828
vt 0.805873 0.248879
vt 0.961198 0.358597
vt 1.000000 0.469348
vt 0.939126 0.615021
vt 0.852494 0.638907
vt 0.765765 0.705105
vt 0.654019 0.610459
vt 0.598662 0.621397
vt 0.473892 0.529326
vt 0.330344 0.676110
vt 0.295012 0.754143
vt 0.177046 0.816363
vt 0.104785 0.818800
vt 0.014000 0.667570
vt 0.034298 0.616191
vt 0.038334 0.559568
vt 0.078637 0.583746
vt 0.222653 0.516379
vt 0.089362 0.449674
vt 0.056136 0.461315
vt 0.000000 0.245720
vt 0.091838 0.222497
vt 0.081036 0.107905
vn -0.000000 0.000000 1.000000
vn -0.000000 0.000000 1.000000
vn -0.000000 0.000000 1.000000
vn -0.000000 0.000000 1.000000
vn -0.000000 0.000000 1.000000
vn -0.000000 0.000000 1.000000
vn -0.000000 0.000000 1.000000
vn -0.000000 0.000000 1.000000
vn -0.000000 0.000000 1.000000
vn -0.000000 0.000000 1.000000
vn -0.000000 0.000000 1.000000
vn -0.000000 0.000000 1.000000
vn -0.000000 0.000000 1.000000
vn -0.000000 0.000000 1.000000
vn -0.000000 0.000000 1.000000
vn -0.000000 0.000000 1.000000
vn -0.000000 0.000000 1.000000
vn -0.000000 0.000000 1.000000
vn -0.000000 0.000000 1.000000
vn -0.000000 0.000000 1.000000
vn -0.000000 0.000000 1.000000
vn -0.000000 0.000000 1.000000
vn -0.000000 0.000000 1.000000
vn -0.000000 0.000000 1.000000
vn -0.000000 0.000000 1.000000
vn -0.000000 0.000000 1.000000
vn -0.000000 0.000000 1.000000
vn -0.000000 0.000000 1.000000
vn 0.000000 0.000000 -1.000000
vn 0.000000 0.000000 -1.000000
vn 0.000000 0.000000 -1.000000
vn 0.000000 0.000000 -1.000000
vn 0.000000 0.000000 -1.000000
vn 0.000000 0.000000 -1.000000
vn 0.000000 0.000000 -1.000000
vn 0.000000 0.000000 -1.000000
vn 0.000000 0.000000 -1.000000
vn 0.000000 0.000000 -1.000000
vn 0.000000 0.000000 -1.000000
vn 0.000000 0.000000 -1.000000
vn 0.000000 0.000000 -1.000000
vn 0.000000 0.000000 -1.000000
vn 0.000000 0.000000 -1.000000
vn 0.000000 0.000000 -1.000000
vn 0.000000 0.000000 -1.000000
vn 0.000000 0.000000 -1.000000
vn 0.000000 0.000000 -1.000000
vn 0.000000 0.000000 -1.000000
vn 0.000000 0.000000 -1.000000
vn 0.000000 0.000000 -1.000000
vn 0.000000 0.000000 -1.000000
vn 0.000000 0.000000 -1.000000
vn 0.000000 0.000000 -1.000000
vn 0.000000 0.000000 -1.000000
vn 0.000000 0.000000 -1.000000
vn 0.000000 0.000000 -1.000000
vn 0.556616 0.830770 0.000000
vn 0.556616 0.830770 0.000000
vn 0.556616 0.830770 0.000000
vn 0.556616 0.830770 0.000000
vn -0.401476 0.915870 0.000000
vn -0.401476 0.915870 0.000000
vn -0.401476 0.915870 0.000000
vn -0.401476 0.915870 0.000000
vn 0.415759 0.909475 0.000000
vn 0.415759 0.909475 0.000000
vn 0.415759 0.909475 0.000000
vn 0.415759 0.909475 0.000000
vn -0.171341 0.985212 0.000000
vn -0.171341 0.985212 0.000000
vn -0.171341 0.985212 0.000000
vn -0.171341 0.985212 0.000000
vn 0.888217 0.459424 0.000000
vn 0.888217 0.459424 0.000000
vn 0.888217 0.459424 0.000000
vn 0.888217 0.459424 0.000000
vn -0.024684 0.999695 0.000000
vn -0.024684 0.999695 0.000000
vn -0.024684 0.999695 0.000000
vn -0.024684 0.999695 0.000000
vn -0.599999 0.800000 0.000000
vn -0.599999 0.800000 0.000000
vn -0.599999 0.800000 0.000000
vn -0.599999 0.800000 0.000000
vn -0.981148 0.193257 0.000000
vn -0.981148 0.193257 0.000000
vn -0.981148 0.193257 0.000000
vn -0.981148 0.193257 0.000000
vn -0.757410 -0.652940 0.000000
vn -0.876976 -0.480535 0.000000
vn -0.876976 -0.480535 0.000000
vn -0.757410 -0.652940 0.000000
vn -0.946510 -0.322674 0.000000
vn -0.946510 -0.322674 0.000000
vn 0.112190 -0.993687 0.000000
vn 0.112190 -0.993687 0.000000
vn 0.112190 -0.993687 0.000000
vn 0.112190 -0.993687 0.000000
vn -0.707107 -0.707107 0.000000
vn -0.707107 -0.707107 0.000000
vn -0.707107 -0.707107 0.000000
vn -0.707107 -0.707107 0.000000
vn 0.045408 -0.998969 0.000000
vn 0.045408 -0.998969 0.000000
vn 0.045408 -0.998969 0.000000
vn 0.045408 -0.998969 0.000000
vn -0.983130 -0.182908 0.000000
vn -0.996658 -0.081693 0.000000
vn -0.996658 -0.081693 0.000000
vn -0.983130 -0.182908 0.000000
vn -0.986394 0.164400 0.000000
vn -0.986394 0.164400 0.000000
vn -0.879905 -0.475149 0.000000
vn -0.794358 -0.607450 0.000000
vn -0.794358 -0.607450 0.000000
vn -0.879905 -0.475149 0.000000
vn -0.584305 -0.811534 0.000000
vn -0.584305 -0.811534 0.000000
vn 0.425797 -0.904819 0.000000
vn 0.425797 -0.904819 0.000000
vn 0.425797 -0.904819 0.000000
vn 0.425797 -0.904819 0.000000
vn 0.977177 -0.212429 0.000000
vn 0.932798 -0.360399 0.000000
vn 0.932798 -0.360399 0.000000
vn 0.977177 -0.212429 0.000000
vn 0.868243 -0.496140 0.000000
vn 0.868243 -0.496140 0.000000
vn 0.049937 0.998752 0.000000
vn 0.049937 0.998752 0.000000
vn 0.049937 0.998752 0.000000
vn 0.049937 0.998752 0.000000
vn 0.856188 0.516665 0.000000
vn 0.856188 0.516665 0.000000
vn 0.856188 0.516665 0.000000
vn 0.856188 0.516665 0.000000
vn -0.125972 -0.992034 0.000000
vn -0.125972 -0.992034 0.000000
vn -0.125972 -0.992034 0.000000
vn -0.125972 -0.992034 0.000000
vn -0.800001 -0.599999 0.000000
vn -0.800001 -0.599999 0.000000
vn -0.800001 -0.599999 0.000000
vn -0.800001 -0.599999 0.000000
vn 0.663710 -0.747990 0.000000
vn 0.663710 -0.747990 0.000000
vn 0.663710 -0.747990 0.000000
vn 0.663710 -0.747990 0.000000
vn 0.743294 0.668965 0.000000
vn 0.743294 0.668965 0.000000
vn 0.743294 0.668965 0.000000
vn 0.743294 0.668965 0.000000
vn 0.774865 -0.632127 0.000000
vn 0.774865 -0.632127 0.000000
vn 0.774865 -0.632127 0.000000
vn 0.774865 -0.632127 0.000000
vn 0.999315 -0.037012 0.000000
vn 0.999315 -0.037012 0.000000
vn 0.999315 -0.037012 0.000000
vn 0.999315 -0.037012 0.000000
s off
g polySurface2
usemtl initialShadingGroup
f 29/57/1 30/58/2 31/59/3 32/60/4 33/61/5 34/62/6 35/63/7 36/64/8 37/65/9 38/66/10 39/67/11 40/68/12 41/69/13 42/70/14 43/71/15 44/72/16 45/73/17 46/74/18 47/75/19 48/76/20 49/77/21 50/78/22 51/79/23 52/80/24 53/81/25 54/82/26 55/83/27 56/84/28
f 1/29/29 28/56/30 27/55/31 26/54/32 25/53/33 24/52/34 23/51/35 22/50/36 21/49/37 20/48/38 19/47/39 18/46/40 17/45/41 16/44/42 15/43/43 14/42/44 13/41/45 12/40/46 11/39/47 10/38/48 9/37/49 8/36/50 7/35/51 6/34/52 5/33/53 4/32/54 3/31/55 2/30/56
f 1/1/57 2/2/58 30/58/59 29/57/60
f 2/2/61 3/3/62 31/59/63 30/58/64
f 3/3/65 4/4/66 32/60/67 31/59/68
f 4/4/69 5/5/70 33/61/71 32/60/72
f 5/5/73 6/6/74 34/62/75 33/61/76
f 6/6/77 7/7/78 35/63/79 34/62/80
f 7/7/81 8/8/82 36/64/83 35/63/84
f 8/8/85 9/9/86 37/65/87 36/64/88
s 1
f 9/9/89 10/10/90 38/66/91 37/65/92
f 10/10/90 11/11/93 39/67/94 38/66/91
s off
f 11/11/95 12/12/96 40/68/97 39/67/98
f 12/12/99 13/13/100 41/69/101 40/68/102
f 13/13/103 14/14/104 42/70/105 41/69/106
s 2
f 14/14/107 15/15/108 43/71/109 42/70/110
f 15/15/108 16/16/111 44/72/112 43/71/109
s 3
f 16/16/113 17/17/114 45/73/115 44/72/116
f 17/17/114 18/18/117 46/74/118 45/73/115
s off
f 18/18/119 19/19/120 47/75/121 46/74/122
s 4
f 19/19/123 20/20/124 48/76/125 47/75/126
f 20/20/124 21/21/127 49/77/128 48/76/125
s off
f 21/21/129 22/22/130 50/78/131 49/77/132
f 22/22/133 23/23/134 51/79/135 50/78/136
f 23/23/137 24/24/138 52/80/139 51/79/140
f 24/24/141 25/25/142 53/81/143 52/80/144
f 25/25/145 26/26/146 54/82/147 53/81/148
f 26/26/149 27/27/150 55/83/151 54/82/152
f 27/27/153 28/28/154 56/84/155 55/83/156
f 28/28/157 1/1/158 29/57/159 56/84/160
