# This file uses centimeters as units for non-parametric coordinates.

mtllib wall.mtl
g default
v -5.000000 0.000000 0.250000
v 5.000000 0.000000 0.250000
v -5.000000 10.000000 0.250000
v 5.000000 10.000000 0.250000
v -5.000000 10.000000 -0.250000
v 5.000000 10.000000 -0.250000
v -5.000000 0.000000 -0.250000
v 5.000000 0.000000 -0.250000
v -5.000000 0.000000 0.250000
v 5.000000 0.000000 0.250000
v 5.000000 10.000000 0.250000
v -5.000000 10.000000 0.250000
v 5.000000 10.000000 -0.250000
v -5.000000 10.000000 -0.250000
v 5.000000 0.000000 -0.250000
v -5.000000 0.000000 -0.250000
v -5.000002 -0.000002 0.250000
v 5.000002 -0.000002 0.250000
v 5.000002 10.000001 0.250000
v -5.000002 10.000001 0.250000
v -2.981887 4.801037 0.250000
v 2.981887 4.801037 0.250000
v 2.981887 8.470289 0.250000
v -2.981887 8.470289 0.250000
v -2.981887 8.470289 -0.250000
v 2.981887 8.470289 -0.250000
v 2.981887 4.801037 -0.250000
v -2.981887 4.801037 -0.250000
v -0.208891 4.801037 0.250000
v 0.208891 4.801037 0.250000
v 0.208891 4.801037 -0.250000
v -0.208891 4.801037 -0.250000
v -0.208891 8.472674 0.250000
v 0.208891 8.472674 0.250000
v 0.208891 8.472674 -0.250000
v -0.208891 8.472674 -0.250000
v 2.981887 6.853464 -0.250000
v 2.981887 6.417863 -0.250000
v 2.981887 6.417863 0.250000
v 2.981887 6.853464 0.250000
v -2.982530 6.853464 -0.250000
v -2.982530 6.417863 -0.250000
v -2.982530 6.417863 0.250000
v -2.982530 6.853464 0.250000
vt 0.375000 0.000000
vt 0.625000 0.000000
vt 0.375000 0.250000
vt 0.625000 0.250000
vt -0.000000 -0.000000
vt 1.000000 -0.000000
vt 1.000000 1.000000
vt -0.000000 1.000000
vt -0.000000 1.000000
vt 1.000000 1.000000
vt 1.000000 0.000000
vt 1.000000 1.000000
vt 1.000000 1.000000
vt 1.000000 -0.000000
vt 0.375000 0.000000
vt 0.625000 0.000000
vt 0.625000 0.250000
vt 0.375000 0.250000
vt 0.625000 0.500000
vt 0.375000 0.500000
vt 0.625000 0.750000
vt 0.375000 0.750000
vt 0.625000 1.000000
vt 0.375000 1.000000
vt 0.875000 0.000000
vt 0.875000 0.250000
vt 0.125000 0.000000
vt 0.125000 0.250000
vt 0.375000 0.000000
vt 0.625000 0.000000
vt 0.625000 0.250000
vt 0.375000 0.250000
vt -0.000000 0.000000
vt 1.000000 0.000000
vt 0.798189 0.480104
vt 0.201811 0.480104
vt -0.000000 1.000000
vt 1.000000 1.000000
vt 0.798189 0.847029
vt 0.201811 0.847029
vt 0.000000 0.000000
vt 0.366925 0.000000
vt 0.366925 1.000000
vt 0.000000 1.000000
vt 0.000000 0.000000
vt 0.596377 0.000000
vt 0.596377 1.000000
vt 0.000000 1.000000
vt -0.000000 1.000000
vt -0.000000 0.000000
vt -0.000000 -0.000000
vt -0.000000 1.000000
vt 1.000000 0.000000
vt -0.000000 0.000000
vt 0.798189 -0.000000
vt 0.201811 -0.000000
vt 0.000000 0.000000
vt 0.596377 0.000000
vt 0.596377 1.000000
vt 0.000000 1.000000
vt 0.000000 0.000000
vt 0.596377 0.000000
vt 0.596377 1.000000
vt 0.000000 1.000000
vt 0.000000 0.000000
vt 0.366925 0.000000
vt 0.366925 1.000000
vt 0.000000 1.000000
vt 0.000000 0.000000
vt 0.366925 0.000000
vt 0.366925 1.000000
vt 0.000000 1.000000
vt 1.000000 1.000000
vt 0.798189 0.847029
vt -0.000000 1.000000
vt 0.201811 0.847029
vt 0.479111 0.480104
vt 0.520889 0.480104
vt 0.520889 0.847267
vt 0.479111 0.847267
vt 0.798189 0.641786
vt 0.798189 0.685346
vt 0.201747 0.685346
vt 0.201747 0.641786
vt 1.000000 -0.000000
vt 0.798189 0.480104
vt -0.000000 -0.000000
vt 0.201811 0.480104
vt 0.520889 0.480104
vt 0.479111 0.480104
vt 0.479111 0.847267
vt 0.520889 0.847267
vt 0.798189 0.685346
vt 0.798189 0.641786
vt 0.201747 0.641786
vt 0.201747 0.685346
vt 0.201811 1.000000
vt 0.798189 1.000000
vt 0.798189 0.000000
vt 0.798189 1.000000
vt 0.520889 1.000000
vt 0.520889 0.000000
vt 0.201811 1.000000
vt 0.201811 0.000000
vt 0.479111 0.000000
vt 0.479111 1.000000
vt 0.798189 -0.000000
vt 0.798189 1.000000
vt 0.201747 1.000000
vt 0.201747 -0.000000
vt 0.201811 1.000000
vt 0.201811 1.000000
vt 0.201811 -0.000000
vt 0.201811 0.000000
vt 0.520889 0.000000
vt 0.520889 1.000000
vt 0.520889 1.000000
vt 0.520889 -0.000000
vt 0.479111 1.000000
vt 0.479111 0.000000
vt 0.479111 -0.000000
vt 0.479111 1.000000
vt 0.798189 1.000000
vt 0.798189 0.000000
vt 0.798189 -0.000000
vt 0.798189 1.000000
vt 0.798189 -0.000000
vt 0.798189 1.000000
vt 0.798189 1.000000
vt 0.798189 -0.000000
vn 0.000000 1.000000 0.000000
vn 0.000000 1.000000 0.000000
vn 0.000000 1.000000 0.000000
vn 0.000000 1.000000 0.000000
vn 0.000000 -1.000000 0.000000
vn 0.000000 -1.000000 0.000000
vn 0.000000 -1.000000 0.000000
vn 0.000000 -1.000000 0.000000
vn 1.000000 0.000000 0.000000
vn 1.000000 0.000000 0.000000
vn 1.000000 0.000000 0.000000
vn 1.000000 0.000000 0.000000
vn -1.000000 0.000000 0.000000
vn -1.000000 0.000000 0.000000
vn -1.000000 0.000000 0.000000
vn -1.000000 0.000000 0.000000
vn 0.000000 -1.000000 0.000000
vn 0.000000 -1.000000 0.000000
vn 0.000000 -1.000000 0.000000
vn 0.000000 -1.000000 0.000000
vn 0.000000 1.000000 0.000000
vn 0.000000 1.000000 0.000000
vn 0.000000 1.000000 0.000000
vn 0.000000 1.000000 0.000000
vn -1.000000 0.000000 0.000000
vn -1.000000 0.000000 0.000000
vn -1.000000 0.000000 0.000000
vn -1.000000 0.000000 0.000000
vn 1.000000 0.000000 0.000000
vn 1.000000 0.000000 0.000000
vn 1.000000 0.000000 0.000000
vn 1.000000 0.000000 0.000000
vn 0.000000 0.000000 -1.000000
vn 0.000000 0.000000 -1.000000
vn 0.000000 0.000000 -1.000000
vn 0.000000 0.000000 -1.000000
vn 0.000000 0.000000 -1.000000
vn 0.000000 0.000000 -1.000000
vn 0.000000 0.000000 -1.000000
vn 0.000000 0.000000 -1.000000
vn 0.000000 0.000000 -1.000000
vn 0.000000 0.000000 -1.000000
vn 0.000000 0.000000 -1.000000
vn 0.000000 0.000000 -1.000000
vn 0.000000 0.000000 -1.000000
vn 0.000000 0.000000 -1.000000
vn 0.000000 0.000000 -1.000000
vn 0.000000 0.000000 -1.000000
vn 0.000000 0.000000 1.000000
vn 0.000000 0.000000 1.000000
vn 0.000000 0.000000 1.000000
vn 0.000000 0.000000 1.000000
vn 0.000000 0.000000 1.000000
vn 0.000000 0.000000 1.000000
vn 0.000000 0.000000 1.000000
vn 0.000000 0.000000 1.000000
vn 0.000000 0.000000 1.000000
vn 0.000000 0.000000 1.000000
vn 0.000000 0.000000 1.000000
vn 0.000000 0.000000 1.000000
vn 0.000000 0.000000 1.000000
vn 0.000000 0.000000 1.000000
vn 0.000000 0.000000 1.000000
vn 0.000000 0.000000 1.000000
vn 0.000000 0.000000 -1.000000
vn 0.000000 0.000000 -1.000000
vn 0.000000 0.000000 -1.000000
vn 0.000000 0.000000 -1.000000
vn 0.000000 0.000000 -1.000000
vn 0.000000 0.000000 -1.000000
vn 0.000000 0.000000 -1.000000
vn 0.000000 0.000000 -1.000000
vn 0.000000 0.000000 -1.000000
vn 0.000000 0.000000 -1.000000
vn 0.000000 0.000000 -1.000000
vn 0.000000 0.000000 -1.000000
vn 0.000000 0.000000 -1.000000
vn 0.000000 0.000000 -1.000000
vn 0.000000 0.000000 -1.000000
vn 0.000000 0.000000 -1.000000
vn -1.000000 0.000000 0.000000
vn -1.000000 0.000000 0.000000
vn -1.000000 0.000000 0.000000
vn -1.000000 0.000000 0.000000
vn 0.000000 1.000000 0.000000
vn 0.000000 1.000000 0.000000
vn 0.000000 1.000000 0.000000
vn 0.000000 1.000000 0.000000
vn 1.000000 0.000000 0.000000
vn 1.000000 0.000000 0.000000
vn 1.000000 0.000000 0.000000
vn 1.000000 0.000000 0.000000
vn 0.000000 -1.000000 0.000000
vn 0.000000 -1.000000 0.000000
vn 0.000000 -1.000000 0.000000
vn 0.000000 -1.000000 0.000000
vn 0.000000 0.000000 0.000000
vn 0.000000 0.000000 0.000000
vn 0.000000 0.000000 0.000000
vn 0.000000 0.000000 0.000000
vn 0.000000 1.000000 0.000000
vn 0.000000 1.000000 0.000000
vn 0.000000 1.000000 0.000000
vn 0.000000 1.000000 0.000000
vn 0.000000 0.000000 0.000000
vn 0.000000 0.000000 0.000000
vn 0.000000 0.000000 0.000000
vn 0.000000 0.000000 0.000000
vn 0.000000 1.000000 0.000000
vn 0.000000 1.000000 0.000000
vn 0.000000 1.000000 0.000000
vn 0.000000 1.000000 0.000000
vn 0.000000 0.000000 1.000000
vn 0.000000 0.000000 1.000000
vn 0.000000 0.000000 1.000000
vn 0.000000 0.000000 1.000000
vn 1.000000 0.000000 0.000000
vn 1.000000 0.000000 0.000000
vn 1.000000 0.000000 0.000000
vn 1.000000 0.000000 0.000000
vn 0.000000 0.000000 -1.000000
vn 0.000000 0.000000 -1.000000
vn 0.000000 0.000000 -1.000000
vn 0.000000 0.000000 -1.000000
vn -1.000000 0.000000 0.000000
vn -1.000000 0.000000 0.000000
vn -1.000000 0.000000 0.000000
vn -1.000000 0.000000 0.000000
vn 0.000000 0.000000 0.000000
vn 0.000000 0.000000 0.000000
vn 0.000000 0.000000 0.000000
vn 0.000000 0.000000 0.000000
vn -1.000000 0.000000 0.000000
vn -1.000000 0.000000 0.000000
vn -1.000000 0.000000 0.000000
vn -1.000000 0.000000 0.000000
vn 0.000000 0.000000 0.000000
vn 0.000000 0.000000 0.000000
vn 0.000000 0.000000 0.000000
vn 0.000000 0.000000 0.000000
vn -1.000000 0.000000 0.000000
vn -1.000000 0.000000 0.000000
vn -1.000000 0.000000 0.000000
vn -1.000000 0.000000 0.000000
vn 0.000000 0.000000 -1.000000
vn 0.000000 0.000000 -1.000000
vn 0.000000 0.000000 -1.000000
vn 0.000000 0.000000 -1.000000
vn 0.000000 -1.000000 0.000000
vn 0.000000 -1.000000 0.000000
vn 0.000000 -1.000000 0.000000
vn 0.000000 -1.000000 0.000000
vn 0.000000 0.000000 1.000000
vn 0.000000 0.000000 1.000000
vn 0.000000 0.000000 1.000000
vn 0.000000 0.000000 1.000000
vn 0.000000 1.000000 0.000000
vn 0.000000 1.000000 0.000000
vn 0.000000 1.000000 0.000000
vn 0.000000 1.000000 0.000000
s off
g pCube1
usemtl lambert2SG
f 12/5/1 11/6/2 13/7/3 14/8/4
f 16/9/5 15/10/6 10/53/7 9/54/8
f 10/11/9 15/12/10 13/13/11 11/14/12
f 16/49/13 9/50/14 12/51/15 14/52/16
f 3/18/17 5/20/18 6/19/19 4/17/20
f 7/22/21 1/24/22 2/23/23 8/21/24
f 2/16/25 4/17/26 6/26/27 8/25/28
f 7/27/29 5/28/30 3/18/31 1/15/32
f 9/1/33 10/2/34 18/30/35 17/29/36
f 10/2/37 11/4/38 19/31/39 18/30/40
f 11/4/41 12/3/42 20/32/43 19/31/44
f 12/3/45 9/1/46 17/29/47 20/32/48
f 17/33/49 18/34/50 22/35/51 21/36/52
f 18/34/53 19/73/54 23/74/55 22/35/56
f 19/73/57 20/75/58 24/76/59 23/74/60
f 20/75/61 17/33/62 21/36/63 24/76/64
f 14/37/65 13/38/66 26/39/67 25/40/68
f 13/38/69 15/85/70 27/86/71 26/39/72
f 15/85/73 16/87/74 28/88/75 27/86/76
f 16/87/77 14/37/78 25/40/79 28/88/80
f 41/69/81 42/70/82 43/71/83 44/72/84
f 33/61/85 34/62/86 35/63/87 36/64/88
f 28/111/89 25/112/90 24/113/91 21/114/92
f 23/55/93 24/56/94 25/97/95 26/98/96
f 21/45/97 22/46/98 30/58/99 29/57/100
f 22/99/101 27/100/102 31/101/103 30/102/104
f 27/47/105 28/48/106 32/60/107 31/59/108
f 28/103/109 21/104/110 29/105/111 32/106/112
usemtl lambert3SG
f 29/77/113 30/78/114 34/79/115 33/80/116
f 30/115/117 31/116/118 35/117/119 34/118/120
f 31/89/121 32/90/122 36/91/123 35/92/124
f 32/119/125 29/120/126 33/121/127 36/122/128
usemtl lambert2SG
f 26/41/129 27/42/130 38/66/131 37/65/132
f 27/123/133 22/124/134 39/125/135 38/126/136
f 22/43/137 23/44/138 40/68/139 39/67/140
f 23/127/141 26/128/142 37/129/143 40/130/144
usemtl lambert3SG
f 37/93/145 38/94/146 42/95/147 41/96/148
f 38/66/149 39/67/150 43/71/151 42/70/152
f 39/81/153 40/82/154 44/83/155 43/84/156
f 40/107/157 37/108/158 41/109/159 44/110/160
