# This file uses centimeters as units for non-parametric coordinates.

mtllib Paraguay.mtl
g default
v -0.296694 0.182503 0.000000
v 0.011847 0.256553 0.000000
v 0.129092 0.201016 0.000000
v 0.166117 0.059087 0.000000
v 0.153775 -0.064329 0.000000
v 0.394437 -0.101354 0.000000
v 0.474658 -0.311162 0.000000
v 0.548707 -0.298820 0.000000
v 0.598074 -0.329674 0.000000
v 0.524024 -0.693752 0.000000
v 0.456145 -0.786314 0.000000
v 0.122921 -0.804827 0.000000
v 0.240167 -0.570336 0.000000
v 0.215484 -0.508628 0.000000
v -0.037520 -0.372870 0.000000
v -0.173278 -0.342016 0.000000
v -0.358402 -0.150721 0.000000
v -0.333719 0.071429 0.000000
v -0.296694 0.182503 -0.100000
v 0.011847 0.256553 -0.100000
v 0.129092 0.201016 -0.100000
v 0.166117 0.059087 -0.100000
v 0.153775 -0.064329 -0.100000
v 0.394437 -0.101354 -0.100000
v 0.474658 -0.311162 -0.100000
v 0.548707 -0.298820 -0.100000
v 0.598074 -0.329674 -0.100000
v 0.524024 -0.693752 -0.100000
v 0.456145 -0.786314 -0.100000
v 0.122921 -0.804827 -0.100000
v 0.240167 -0.570336 -0.100000
v 0.215484 -0.508628 -0.100000
v -0.037520 -0.372870 -0.100000
v -0.173278 -0.342016 -0.100000
v -0.358402 -0.150721 -0.100000
v -0.333719 0.071429 -0.100000
vt 0.123255 0.000000
vt 0.407129 0.000000
vt 0.497531 0.072794
vt 0.500107 0.203994
vt 0.463603 0.308782
vt 0.665235 0.391239
vt 0.691218 0.590509
vt 0.758213 0.595233
vt 0.794718 0.632381
vt 0.654284 0.933648
vt 0.575907 1.000000
vt 0.282156 0.946532
vt 0.433111 0.767017
vt 0.424522 0.708181
vt 0.232768 0.537256
vt 0.121108 0.482070
vt 0.000000 0.277002
vt 0.067855 0.088898
vt 0.123255 0.000000
vt 0.407129 0.000000
vt 0.497531 0.072794
vt 0.500107 0.203994
vt 0.463603 0.308782
vt 0.665235 0.391239
vt 0.691218 0.590509
vt 0.758213 0.595233
vt 0.794718 0.632381
vt 0.654284 0.933648
vt 0.575907 1.000000
vt 0.282156 0.946532
vt 0.433111 0.767017
vt 0.424522 0.708181
vt 0.232768 0.537256
vt 0.121108 0.482070
vt 0.000000 0.277002
vt 0.067855 0.088898
vt 0.123255 0.000000
vt 0.407129 0.000000
vt 0.497531 0.072794
vt 0.500107 0.203994
vt 0.463603 0.308782
vt 0.665235 0.391239
vt 0.691218 0.590509
vt 0.758213 0.595233
vt 0.794718 0.632381
vt 0.654284 0.933648
vt 0.575907 1.000000
vt 0.282156 0.946532
vt 0.433111 0.767017
vt 0.424522 0.708181
vt 0.232768 0.537256
vt 0.121108 0.482070
vt 0.000000 0.277002
vt 0.067855 0.088898
vn -0.000000 0.000000 -1.000000
vn -0.000000 0.000000 -1.000000
vn -0.000000 0.000000 -1.000000
vn -0.000000 0.000000 -1.000000
vn -0.000000 0.000000 -1.000000
vn -0.000000 0.000000 -1.000000
vn -0.000000 0.000000 -1.000000
vn -0.000000 0.000000 -1.000000
vn -0.000000 0.000000 -1.000000
vn -0.000000 0.000000 -1.000000
vn -0.000000 0.000000 -1.000000
vn -0.000000 0.000000 -1.000000
vn -0.000000 0.000000 -1.000000
vn -0.000000 0.000000 -1.000000
vn -0.000000 0.000000 -1.000000
vn -0.000000 0.000000 -1.000000
vn -0.000000 0.000000 -1.000000
vn -0.000000 0.000000 -1.000000
vn 0.000000 0.000000 1.000000
vn 0.000000 0.000000 1.000000
vn 0.000000 0.000000 1.000000
vn 0.000000 0.000000 1.000000
vn 0.000000 0.000000 1.000000
vn 0.000000 0.000000 1.000000
vn 0.000000 0.000000 1.000000
vn 0.000000 0.000000 1.000000
vn 0.000000 0.000000 1.000000
vn 0.000000 0.000000 1.000000
vn 0.000000 0.000000 1.000000
vn 0.000000 0.000000 1.000000
vn 0.000000 0.000000 1.000000
vn 0.000000 0.000000 1.000000
vn 0.000000 0.000000 1.000000
vn 0.000000 0.000000 1.000000
vn 0.000000 0.000000 1.000000
vn 0.000000 0.000000 1.000000
vn -0.233373 0.972387 0.000000
vn -0.233373 0.972387 0.000000
vn -0.233373 0.972387 0.000000
vn -0.233373 0.972387 0.000000
vn 0.428086 0.903738 0.000000
vn 0.428086 0.903738 0.000000
vn 0.428086 0.903738 0.000000
vn 0.428086 0.903738 0.000000
vn 0.967617 0.252422 0.000000
vn 0.995701 0.092623 0.000000
vn 0.995701 0.092623 0.000000
vn 0.967617 0.252422 0.000000
vn 0.995037 -0.099504 0.000000
vn 0.995037 -0.099504 0.000000
vn 0.152057 0.988372 0.000000
vn 0.152057 0.988372 0.000000
vn 0.152057 0.988372 0.000000
vn 0.152057 0.988372 0.000000
vn 0.934052 0.357138 0.000000
vn 0.934052 0.357138 0.000000
vn 0.934052 0.357138 0.000000
vn 0.934052 0.357138 0.000000
vn -0.164399 0.986394 0.000000
vn -0.164399 0.986394 0.000000
vn -0.164399 0.986394 0.000000
vn -0.164399 0.986394 0.000000
vn 0.529999 0.847998 0.000000
vn 0.529999 0.847998 0.000000
vn 0.529999 0.847998 0.000000
vn 0.529999 0.847998 0.000000
vn 0.979937 -0.199309 0.000000
vn 0.954938 -0.296805 0.000000
vn 0.954938 -0.296805 0.000000
vn 0.979937 -0.199309 0.000000
vn 0.806405 -0.591364 0.000000
vn 0.806405 -0.591364 0.000000
vn 0.055470 -0.998460 0.000000
vn 0.055470 -0.998460 0.000000
vn 0.055470 -0.998460 0.000000
vn 0.055470 -0.998460 0.000000
vn -0.894427 0.447214 0.000000
vn -0.894427 0.447214 0.000000
vn -0.894427 0.447214 0.000000
vn -0.894427 0.447214 0.000000
vn -0.928477 -0.371391 0.000000
vn -0.928477 -0.371391 0.000000
vn -0.928477 -0.371391 0.000000
vn -0.928477 -0.371391 0.000000
vn -0.472818 -0.881160 0.000000
vn -0.393919 -0.919145 0.000000
vn -0.393919 -0.919145 0.000000
vn -0.472818 -0.881160 0.000000
vn -0.221621 -0.975133 0.000000
vn -0.221621 -0.975133 0.000000
vn -0.718602 -0.695421 0.000000
vn -0.718602 -0.695421 0.000000
vn -0.718602 -0.695421 0.000000
vn -0.718602 -0.695421 0.000000
vn -0.993884 0.110431 0.000000
vn -0.983282 0.182089 0.000000
vn -0.983282 0.182089 0.000000
vn -0.993884 0.110431 0.000000
vn -0.948683 0.316228 0.000000
vn -0.948683 0.316228 0.000000
s off
g polySurface6
usemtl initialShadingGroup
f 19/37/1 20/38/2 21/39/3 22/40/4 23/41/5 24/42/6 25/43/7 26/44/8 27/45/9 28/46/10 29/47/11 30/48/12 31/49/13 32/50/14 33/51/15 34/52/16 35/53/17 36/54/18
f 1/19/19 18/36/20 17/35/21 16/34/22 15/33/23 14/32/24 13/31/25 12/30/26 11/29/27 10/28/28 9/27/29 8/26/30 7/25/31 6/24/32 5/23/33 4/22/34 3/21/35 2/20/36
f 1/1/37 2/2/38 20/38/39 19/37/40
f 2/2/41 3/3/42 21/39/43 20/38/44
s 1
f 3/3/45 4/4/46 22/40/47 21/39/48
f 4/4/46 5/5/49 23/41/50 22/40/47
s off
f 5/5/51 6/6/52 24/42/53 23/41/54
f 6/6/55 7/7/56 25/43/57 24/42/58
f 7/7/59 8/8/60 26/44/61 25/43/62
f 8/8/63 9/9/64 27/45/65 26/44/66
s 2
f 9/9/67 10/10/68 28/46/69 27/45/70
f 10/10/68 11/11/71 29/47/72 28/46/69
s off
f 11/11/73 12/12/74 30/48/75 29/47/76
f 12/12/77 13/13/78 31/49/79 30/48/80
f 13/13/81 14/14/82 32/50/83 31/49/84
s 3
f 14/14/85 15/15/86 33/51/87 32/50/88
f 15/15/86 16/16/89 34/52/90 33/51/87
s off
f 16/16/91 17/17/92 35/53/93 34/52/94
s 4
f 17/17/95 18/18/96 36/54/97 35/53/98
f 18/18/96 1/1/99 19/37/100 36/54/97
